<svg viewBox="0 0 1100 820" xmlns="http://www.w3.org/2000/svg" font-family="Arial, sans-serif">
  <!-- Background -->
  <rect width="1100" height="820" fill="#F0F4F8" rx="12"/>

  <!-- Title bar -->
  <rect width="1100" height="54" fill="#1B4F8A" rx="12"/>
  <rect y="42" width="1100" height="12" fill="#1B4F8A"/>
  <text x="549" y="34" text-anchor="middle" font-size="22" font-weight="bold" fill="white">FitLife GYM — Diagrama de Topología de Red</text>

  <!-- INTERNET -->
  <rect x="460" y="74" width="180" height="56" rx="10" fill="#E8761A" stroke="#C05A00" stroke-width="2"/>
  <text x="550" y="97" text-anchor="middle" font-size="13" font-weight="bold" fill="white">🌐 INTERNET</text>
  <text x="550" y="117" text-anchor="middle" font-size="11" fill="white">ISP — Fibra Óptica</text>

  <!-- Router -->
  <rect x="460" y="164" width="180" height="54" rx="10" fill="#2563EB" stroke="#1E40AF" stroke-width="2"/>
  <text x="550" y="186" text-anchor="middle" font-size="13" font-weight="bold" fill="white">🔀 Router WAN</text>
  <text x="550" y="203" text-anchor="middle" font-size="10" fill="#BFDBFE">MikroTik hEX RB750Gr3</text>
  <text x="550" y="213" text-anchor="middle" font-size="10" fill="#BFDBFE">IP Pública (ISP)</text>

  <!-- Arrow Internet → Router -->
  <line x1="550" y1="130" x2="550" y2="163" stroke="#555" stroke-width="2" marker-end="url(#arrow)"/>

  <!-- Firewall -->
  <rect x="460" y="252" width="180" height="54" rx="10" fill="#DC2626" stroke="#991B1B" stroke-width="2"/>
  <text x="550" y="274" text-anchor="middle" font-size="13" font-weight="bold" fill="white">🔥 Firewall UTM</text>
  <text x="550" y="291" text-anchor="middle" font-size="10" fill="#FCA5A5">pfSense / FortiGate 40F</text>
  <text x="550" y="301" text-anchor="middle" font-size="10" fill="#FCA5A5">NAT · VPN · Reglas VLAN</text>

  <!-- Arrow Router → Firewall -->
  <line x1="550" y1="218" x2="550" y2="251" stroke="#555" stroke-width="2" marker-end="url(#arrow)"/>

  <!-- Switch Core -->
  <rect x="430" y="342" width="240" height="54" rx="10" fill="#065F46" stroke="#064E3B" stroke-width="2"/>
  <text x="550" y="365" text-anchor="middle" font-size="13" font-weight="bold" fill="white">🔌 Switch Core</text>
  <text x="550" y="382" text-anchor="middle" font-size="10" fill="#A7F3D0">TP-Link TL-SG3428 (24p Gigabit)</text>
  <text x="550" y="392" text-anchor="middle" font-size="10" fill="#A7F3D0">VLAN 802.1Q · SNMP · STP</text>

  <!-- Arrow Firewall → Switch Core -->
  <line x1="550" y1="306" x2="550" y2="341" stroke="#555" stroke-width="2" marker-end="url(#arrow)"/>

  <!-- === BRANCHES FROM SWITCH CORE === -->

  <!-- Left: Servidores -->
  <line x1="430" y1="369" x2="270" y2="430" stroke="#065F46" stroke-width="2" marker-end="url(#arrow)"/>

  <!-- Servidor Principal -->
  <rect x="130" y="430" width="180" height="52" rx="8" fill="#1B4F8A" stroke="#0E3A6E" stroke-width="2"/>
  <text x="220" y="452" text-anchor="middle" font-size="12" font-weight="bold" fill="white">🖥️ Servidor Principal</text>
  <text x="220" y="466" text-anchor="middle" font-size="10" fill="#BFDBFE">App + BBDD</text>
  <text x="220" y="477" text-anchor="middle" font-size="10" fill="#BFDBFE">192.168.10.10</text>

  <!-- Servidor NAS -->
  <rect x="130" y="498" width="180" height="52" rx="8" fill="#1B4F8A" stroke="#0E3A6E" stroke-width="2"/>
  <text x="220" y="520" text-anchor="middle" font-size="12" font-weight="bold" fill="white">💾 Servidor NAS</text>
  <text x="220" y="534" text-anchor="middle" font-size="10" fill="#BFDBFE">Backups · Archivos</text>
  <text x="220" y="545" text-anchor="middle" font-size="10" fill="#BFDBFE">192.168.10.11</text>
  <line x1="220" y1="482" x2="220" y2="498" stroke="#1B4F8A" stroke-width="2"/>

  <!-- VLAN 10 label -->
  <rect x="120" y="410" width="110" height="20" rx="4" fill="#1B4F8A" opacity="0.15"/>
  <text x="175" y="424" text-anchor="middle" font-size="10" fill="#1B4F8A" font-weight="bold">VLAN 10 — Admin</text>

  <!-- Center-left: Switch Planta Baja -->
  <line x1="490" y1="396" x2="380" y2="500" stroke="#065F46" stroke-width="2" marker-end="url(#arrow)"/>

  <rect x="280" y="500" width="190" height="50" rx="8" fill="#065F46" stroke="#064E3B" stroke-width="2"/>
  <text x="375" y="521" text-anchor="middle" font-size="12" font-weight="bold" fill="white">🔌 Switch Planta Baja</text>
  <text x="375" y="535" text-anchor="middle" font-size="10" fill="#A7F3D0">TP-Link TL-SG2210P (PoE)</text>
  <text x="375" y="546" text-anchor="middle" font-size="10" fill="#A7F3D0">192.168.99.11</text>

  <!-- Devices from Switch Planta Baja -->
  <line x1="340" y1="550" x2="300" y2="600" stroke="#555" stroke-width="1.5" marker-end="url(#arrow)"/>
  <rect x="200" y="600" width="155" height="44" rx="7" fill="#374151" stroke="#1F2937" stroke-width="1.5"/>
  <text x="278" y="619" text-anchor="middle" font-size="11" font-weight="bold" fill="white">💻 PCs Recepción</text>
  <text x="278" y="632" text-anchor="middle" font-size="9" fill="#D1D5DB">×2 — VLAN 20</text>
  <text x="278" y="642" text-anchor="middle" font-size="9" fill="#D1D5DB">192.168.20.10-11</text>

  <line x1="375" y1="550" x2="375" y2="600" stroke="#555" stroke-width="1.5" marker-end="url(#arrow)"/>

  <!-- camera below -->
  <rect x="370" y="600" width="155" height="44" rx="7" fill="#374151" stroke="#1F2937" stroke-width="1.5"/>
  <text x="448" y="619" text-anchor="middle" font-size="11" font-weight="bold" fill="white">📷 Cámaras IP ×4</text>
  <text x="448" y="632" text-anchor="middle" font-size="9" fill="#D1D5DB">CCTV — VLAN 50</text>
  <text x="448" y="642" text-anchor="middle" font-size="9" fill="#D1D5DB">192.168.50.20-23</text>

  <line x1="408" y1="550" x2="448" y2="600" stroke="#555" stroke-width="1.5" marker-end="url(#arrow)"/>

  <!-- Center-right: Switch Planta Alta -->
  <line x1="608" y1="396" x2="720" y2="500" stroke="#065F46" stroke-width="2" marker-end="url(#arrow)"/>

  <rect x="628" y="500" width="190" height="50" rx="8" fill="#065F46" stroke="#064E3B" stroke-width="2"/>
  <text x="723" y="521" text-anchor="middle" font-size="12" font-weight="bold" fill="white">🔌 Switch Planta Alta</text>
  <text x="723" y="535" text-anchor="middle" font-size="10" fill="#A7F3D0">TP-Link TL-SG2210P (PoE)</text>
  <text x="723" y="546" text-anchor="middle" font-size="10" fill="#A7F3D0">192.168.99.12</text>

  <!-- Devices from Switch Planta Alta -->
  <line x1="688" y1="550" x2="640" y2="600" stroke="#555" stroke-width="1.5" marker-end="url(#arrow)"/>
  <rect x="545" y="600" width="170" height="44" rx="7" fill="#374151" stroke="#1F2937" stroke-width="1.5"/>
  <text x="630" y="619" text-anchor="middle" font-size="11" font-weight="bold" fill="white">📷 Cámaras IP ×4</text>
  <text x="630" y="632" text-anchor="middle" font-size="9" fill="#D1D5DB">CCTV — VLAN 50</text>
  <text x="630" y="642" text-anchor="middle" font-size="9" fill="#D1D5DB">192.168.50.24-27</text>

  <line x1="757" y1="550" x2="800" y2="600" stroke="#555" stroke-width="1.5" marker-end="url(#arrow)"/>
  <rect x="730" y="600" width="170" height="44" rx="7" fill="#374151" stroke="#1F2937" stroke-width="1.5"/>
  <text x="815" y="619" text-anchor="middle" font-size="11" font-weight="bold" fill="white">📺 Smart TVs ×2</text>
  <text x="815" y="632" text-anchor="middle" font-size="9" fill="#D1D5DB">VLAN 30 (WiFi Emp)</text>
  <text x="815" y="642" text-anchor="middle" font-size="9" fill="#D1D5DB">DHCP 192.168.30.x</text>

  <!-- Right: APs WiFi -->
  <line x1="670" y1="369" x2="850" y2="430" stroke="#065F46" stroke-width="2" marker-end="url(#arrow)"/>

  <rect x="800" y="430" width="200" height="52" rx="8" fill="#7C3AED" stroke="#5B21B6" stroke-width="2"/>
  <text x="900" y="452" text-anchor="middle" font-size="12" font-weight="bold" fill="white">📶 APs WiFi ×4</text>
  <text x="900" y="466" text-anchor="middle" font-size="10" fill="#DDD6FE">TP-Link EAP245 (PoE)</text>
  <text x="900" y="477" text-anchor="middle" font-size="10" fill="#DDD6FE">SSID Dual — 192.168.99.20-23</text>

  <!-- WiFi networks from AP -->
  <line x1="900" y1="482" x2="850" y2="560" stroke="#7C3AED" stroke-width="1.5" stroke-dasharray="6,3" marker-end="url(#arrow)"/>
  <rect x="740" y="560" width="180" height="44" rx="7" fill="#4C1D95" stroke="#5B21B6" stroke-width="1.5"/>
  <text x="830" y="579" text-anchor="middle" font-size="11" font-weight="bold" fill="white">💼 WiFi Empleados</text>
  <text x="830" y="592" text-anchor="middle" font-size="9" fill="#DDD6FE">SSID: FitLife_Staff</text>
  <text x="830" y="602" text-anchor="middle" font-size="9" fill="#DDD6FE">VLAN 30 · WPA3</text>

  <line x1="900" y1="482" x2="960" y2="560" stroke="#7C3AED" stroke-width="1.5" stroke-dasharray="6,3" marker-end="url(#arrow)"/>
  <rect x="920" y="560" width="170" height="44" rx="7" fill="#4C1D95" stroke="#5B21B6" stroke-width="1.5"/>
  <text x="1005" y="579" text-anchor="middle" font-size="11" font-weight="bold" fill="white">🏠 WiFi Clientes</text>
  <text x="1005" y="592" text-anchor="middle" font-size="9" fill="#DDD6FE">SSID: FitLife_Guest</text>
  <text x="1005" y="602" text-anchor="middle" font-size="9" fill="#DDD6FE">VLAN 40 · WPA2</text>

  <!-- Control de acceso -->
  <line x1="550" y1="396" x2="550" y2="668" stroke="#065F46" stroke-width="1.5" marker-end="url(#arrow)"/>
  <rect x="448" y="668" width="204" height="44" rx="7" fill="#374151" stroke="#1F2937" stroke-width="1.5"/>
  <text x="550" y="687" text-anchor="middle" font-size="11" font-weight="bold" fill="white">🚪 Control Acceso ×4</text>
  <text x="550" y="700" text-anchor="middle" font-size="9" fill="#D1D5DB">VLAN 20 — 192.168.20.30-33</text>

  <!-- Legend -->
  <rect x="20" y="690" width="380" height="118" rx="8" fill="white" stroke="#CBD5E1" stroke-width="1.5" opacity="0.92"/>
  <text x="210" y="710" text-anchor="middle" font-size="12" font-weight="bold" fill="#1B4F8A">LEYENDA</text>
  <!-- items -->
  <rect x="34" y="718" width="14" height="10" rx="2" fill="#2563EB"/>
  <text x="55" y="728" font-size="10" fill="#374151">Router WAN</text>
  <rect x="34" y="733" width="14" height="10" rx="2" fill="#DC2626"/>
  <text x="55" y="743" font-size="10" fill="#374151">Firewall UTM</text>
  <rect x="34" y="748" width="14" height="10" rx="2" fill="#065F46"/>
  <text x="55" y="758" font-size="10" fill="#374151">Switches (Core / Acceso)</text>
  <rect x="34" y="763" width="14" height="10" rx="2" fill="#1B4F8A"/>
  <text x="55" y="773" font-size="10" fill="#374151">Servidores (App / NAS)</text>
  <rect x="34" y="778" width="14" height="10" rx="2" fill="#7C3AED"/>
  <text x="55" y="788" font-size="10" fill="#374151">Puntos de Acceso WiFi (APs)</text>
  <rect x="34" y="793" width="14" height="10" rx="2" fill="#374151"/>
  <text x="55" y="803" font-size="10" fill="#374151">Dispositivos finales</text>

  <line x1="200" y1="718" x2="230" y2="718" stroke="#555" stroke-width="2"/>
  <text x="236" y="722" font-size="10" fill="#374151">Cable UTP Cat6</text>
  <line x1="200" y1="733" x2="230" y2="733" stroke="#7C3AED" stroke-width="2" stroke-dasharray="5,3"/>
  <text x="236" y="737" font-size="10" fill="#374151">Enlace WiFi (802.11ac)</text>
  <text x="210" y="756" text-anchor="middle" font-size="9" fill="#666">VLAN 10 Admin · VLAN 20 Recepción</text>
  <text x="210" y="770" text-anchor="middle" font-size="9" fill="#666">VLAN 30 WiFi Emp · VLAN 40 WiFi Cli</text>
  <text x="210" y="784" text-anchor="middle" font-size="9" fill="#666">VLAN 50 CCTV · VLAN 99 Gestión</text>

  <!-- Arrow marker -->
  <defs>
    <marker id="arrow" markerWidth="8" markerHeight="8" refX="6" refY="3" orient="auto">
      <path d="M0,0 L0,6 L8,3 z" fill="#555"/>
    </marker>
  </defs>
</svg>
